<svg width="246" height="246" viewBox="0 0 246 246" fill="none" xmlns="http://www.w3.org/2000/svg">
<g clip-path="url(#clip0_2_113)">
<path d="M114.167 118.583V109.75C114.167 106.236 115.563 102.866 118.047 100.381C120.532 97.896 123.903 96.5 127.417 96.5C130.931 96.5 134.301 97.896 136.786 100.381C139.271 102.866 140.667 106.236 140.667 109.75V123" stroke="white" stroke-width="2.75" stroke-linecap="round" stroke-linejoin="round"/>
<path d="M167.167 123V65.5833C167.167 62.0692 168.563 58.699 171.047 56.2142C173.532 53.7293 176.903 52.3333 180.417 52.3333C183.931 52.3333 187.301 53.7293 189.786 56.2142C192.271 58.699 193.667 62.0692 193.667 65.5833V158.333C193.667 172.39 188.083 185.871 178.143 195.81C168.204 205.749 154.723 211.333 140.667 211.333H123H124.837C116.06 211.335 107.42 209.156 99.6922 204.994C91.9648 200.831 85.3922 194.814 80.5646 187.483C79.9853 186.601 79.4081 185.718 78.8333 184.833C76.0773 180.602 66.4048 163.739 49.807 134.236C48.1149 131.229 47.663 127.68 48.5472 124.344C49.4314 121.008 51.582 118.149 54.5416 116.375C57.6941 114.483 61.3881 113.7 65.0371 114.148C68.686 114.596 72.0806 116.25 74.6816 118.848L87.6666 131.833" stroke="white" stroke-width="2.75" stroke-linecap="round" stroke-linejoin="round"/>
<path d="M140.667 109.75C140.667 106.236 142.063 102.866 144.547 100.381C147.032 97.896 150.403 96.5 153.917 96.5C157.431 96.5 160.801 97.896 163.286 100.381C165.771 102.866 167.167 106.236 167.167 109.75V123" stroke="white" stroke-width="2.75" stroke-linecap="round" stroke-linejoin="round"/>
<path d="M87.6666 131.833V56.75C87.6666 53.2359 89.0626 49.8657 91.5475 47.3808C94.0323 44.896 97.4025 43.5 100.917 43.5C104.431 43.5 107.801 44.896 110.286 47.3808C112.771 49.8657 114.167 53.2359 114.167 56.75V123" stroke="white" stroke-width="2.75" stroke-linecap="round" stroke-linejoin="round"/>
</g>
<defs>
<clipPath id="clip0_2_113">
<rect width="212" height="212" fill="white" transform="translate(17 17)"/>
</clipPath>
</defs>
</svg>
