<svg width="246" height="246" viewBox="0 0 246 246" fill="none" xmlns="http://www.w3.org/2000/svg">
<g clip-path="url(#clip0_1_2)">
<path d="M113.801 30.0005C93.5106 30.0005 75.4842 43.1016 69.2008 62.4385C62.7526 63.7713 56.6615 66.4659 51.3327 70.3431C46.004 74.2203 41.5599 79.191 38.2961 84.9245C28.1199 102.561 30.4436 124.732 44.0764 139.848C39.8675 152.51 41.312 166.365 48.0338 177.83C58.1477 195.529 78.4978 204.599 98.4118 200.379C102.772 205.313 108.131 209.259 114.132 211.952C120.133 214.646 126.637 216.026 133.212 216C153.502 216 171.528 202.899 177.811 183.562C190.877 180.852 202.121 172.664 208.654 161.076C218.892 143.44 216.569 121.268 202.938 106.152V106.089C205.017 99.8309 205.74 93.1994 205.057 86.6385C204.375 80.0775 202.303 73.7383 198.981 68.0449C188.865 50.4087 168.512 41.3362 148.663 45.5566C144.283 40.6352 138.909 36.7032 132.899 34.0214C126.889 31.3395 120.379 29.969 113.801 30.0005ZM113.801 42.095L113.738 42.1575C121.905 42.1575 129.757 44.992 136.038 50.2212C135.787 50.3462 135.284 50.6609 134.908 50.8506L97.9733 72.2029C96.0881 73.2742 94.9574 75.2895 94.9574 77.4946V127.631L79.0654 118.436V76.9902C79.0619 67.7453 82.7182 58.8771 89.2312 52.3337C95.7442 45.7903 104.581 42.1092 113.801 42.095ZM158.294 56.6914C164.414 56.6796 170.43 58.2883 175.732 61.3549C181.033 64.4214 185.434 68.8372 188.488 74.1557C192.508 81.2107 194.015 89.4619 192.633 97.4609C192.381 97.2712 191.881 97.0212 191.564 96.8315L154.63 75.4145C153.701 74.8876 152.652 74.6107 151.584 74.6107C150.517 74.6107 149.467 74.8876 148.538 75.4145L105.258 100.483V82.09L141 61.3672C146.255 58.3121 152.219 56.6987 158.294 56.6892V56.6914ZM66.9417 75.7292V119.757C66.9417 121.962 68.0724 123.915 69.9576 125.049L113.173 150.055L97.2165 159.313L61.5375 138.652C53.5641 134.019 47.7499 126.402 45.3713 117.474C42.9927 108.546 44.2441 99.0367 48.8507 91.0331C52.9144 83.97 59.3144 78.5573 66.9417 75.7292ZM149.731 86.6252L185.473 107.286C202.119 116.923 207.77 138.212 198.159 154.905L198.222 154.967C194.14 162.022 187.732 167.439 180.131 170.211V126.181C180.131 123.975 179 121.96 177.115 120.891L133.837 95.8205L149.731 86.6252ZM123.474 101.806L141.692 112.388V133.488L123.474 144.069L105.258 133.488V112.388L123.474 101.806ZM152.117 118.436L168.009 127.631V169.014C168.009 188.289 152.431 203.91 133.274 203.91V203.847C125.17 203.847 117.255 201.013 111.036 195.786C111.288 195.661 111.853 195.344 112.167 195.154L149.101 173.802C150.987 172.731 152.18 170.715 152.115 168.51L152.117 118.436ZM141.752 145.52V163.91L106.011 184.571C89.364 194.145 68.1325 188.476 58.5216 171.847H58.5839C54.5019 164.854 53.0551 156.541 54.4373 148.542C54.6888 148.731 55.1919 148.981 55.5057 149.171L92.44 170.588C93.3692 171.115 94.4185 171.392 95.486 171.392C96.5535 171.392 97.6028 171.115 98.5319 170.588L141.752 145.52Z" fill="white"/>
</g>
<defs>
<clipPath id="clip0_1_2">
<rect width="246" height="246" fill="white"/>
</clipPath>
</defs>
</svg>
