<?xml version="1.0" encoding="utf-8"?>

<!DOCTYPE svg PUBLIC "-//W3C//DTD SVG 1.1//EN" "http://www.w3.org/Graphics/SVG/1.1/DTD/svg11.dtd">
<!-- Uploaded to: SVG Repo, www.svgrepo.com, Generator: SVG Repo Mixer Tools -->
<svg version="1.1" id="_x32_" xmlns="http://www.w3.org/2000/svg" xmlns:xlink="http://www.w3.org/1999/xlink" 
	 viewBox="0 0 512 512"  xml:space="preserve">
<style type="text/css">
	.st0{fill:#000000;}
</style>
<g>
	<path class="st0" d="M457.871,200.556H54.129c-22.052,0-39.93,17.878-39.93,39.929v231.586C14.2,494.122,32.077,512,54.129,512
		h403.742c22.051,0,39.929-17.878,39.929-39.929V240.485C497.8,218.433,479.923,200.556,457.871,200.556z M474.4,472.071
		c0,9.118-7.412,16.529-16.529,16.529H54.129c-9.118,0-16.53-7.412-16.53-16.529V240.485c0-9.118,7.412-16.529,16.53-16.529h403.742
		c9.117,0,16.529,7.412,16.529,16.529V472.071z"/>
	<path class="st0" d="M155.431,277.139c-23.956,0-45.46,10.45-60.237,27.026h120.481
		C200.897,287.59,179.386,277.139,155.431,277.139z"/>
	<path class="st0" d="M84.217,319.856c-4.883,9.141-8.059,19.325-9.103,30.142h160.631c-1.044-10.816-4.22-21.001-9.103-30.142
		H84.217z"/>
	<path class="st0" d="M84.217,395.83h142.426c4.883-9.141,8.059-19.325,9.103-30.142H75.115
		C76.158,376.505,79.335,386.69,84.217,395.83z"/>
	<path class="st0" d="M155.431,438.547c23.956,0,45.467-10.45,60.244-27.025H95.193
		C109.971,428.097,131.474,438.547,155.431,438.547z"/>
	<path class="st0" d="M315.567,386.377c-12.043,0-21.8,9.758-21.8,21.793c0,12.042,9.758,21.8,21.8,21.8
		c12.043,0,21.793-9.758,21.793-21.8C337.36,396.135,327.61,386.377,315.567,386.377z"/>
	<path class="st0" d="M400.033,386.377c-12.042,0-21.792,9.758-21.792,21.793c0,12.042,9.75,21.8,21.792,21.8
		c12.043,0,21.801-9.758,21.801-21.8C421.835,396.135,412.077,386.377,400.033,386.377z"/>
	<rect x="296.988" y="291.002" class="st0" width="126.827" height="54.981"/>
	<polygon class="st0" points="255.939,115.761 242.273,92.963 78.505,186.471 142.938,186.471 	"/>
	<polygon class="st0" points="383.078,33.594 376.2,22.123 256.998,90.137 265.59,104.465 	"/>
	<path class="st0" d="M415.154,18.216c4.792-2.864,6.619-8.623,4.082-12.85l-0.784-1.303c-2.529-4.235-8.463-5.332-13.254-2.468
		l-18.304,10.968l9.963,16.621L415.154,18.216z"/>
</g>
</svg>