<svg width="246" height="246" viewBox="0 0 246 246" fill="none" xmlns="http://www.w3.org/2000/svg">
<g clip-path="url(#clip0_1_10)">
<path d="M122.743 39C76.494 39 39 76.493 39 122.742C39 168.993 76.494 206.483 122.743 206.483C168.997 206.483 206.487 168.993 206.487 122.742C206.487 76.496 168.997 39.004 122.742 39.004L122.743 39ZM161.147 159.78C159.647 162.24 156.427 163.02 153.967 161.51C134.305 149.5 109.553 146.78 80.403 153.44C77.594 154.08 74.794 152.32 74.154 149.51C73.511 146.7 75.264 143.9 78.08 143.26C109.98 135.972 137.343 139.11 159.417 152.6C161.877 154.11 162.657 157.32 161.147 159.78ZM171.397 136.978C169.507 140.05 165.487 141.02 162.417 139.13C139.907 125.294 105.594 121.287 78.969 129.369C75.516 130.412 71.869 128.466 70.821 125.019C69.781 121.566 71.728 117.926 75.175 116.876C105.588 107.648 143.397 112.118 169.247 128.003C172.317 129.893 173.287 133.912 171.397 136.978ZM172.277 113.234C145.287 97.203 100.757 95.729 74.988 103.55C70.85 104.805 66.474 102.469 65.22 98.331C63.966 94.191 66.3 89.818 70.441 88.56C100.022 79.58 149.197 81.315 180.271 99.762C184.001 101.971 185.221 106.778 183.011 110.495C180.811 114.217 175.991 115.444 172.281 113.234H172.277Z" fill="white"/>
</g>
<defs>
<clipPath id="clip0_1_10">
<rect width="246" height="246" fill="white"/>
</clipPath>
</defs>
</svg>
