<?xml version="1.0" ?>
<!DOCTYPE svg  PUBLIC '-//W3C//DTD SVG 1.1//EN'  'http://www.w3.org/Graphics/SVG/1.1/DTD/svg11.dtd'>
<!-- Uploaded to: SVG Repo, www.svgrepo.com, Generator: SVG Repo Mixer Tools -->
<svg fill="#000000" width="800px" height="800px" viewBox="0 0 32 32" style="fill-rule:evenodd;clip-rule:evenodd;stroke-linejoin:round;stroke-miterlimit:2;" version="1.1" xml:space="preserve" xmlns="http://www.w3.org/2000/svg" xmlns:serif="http://www.serif.com/" xmlns:xlink="http://www.w3.org/1999/xlink">
<g id="Icon">
<path d="M28.002,7c0,-0.796 -0.316,-1.559 -0.878,-2.121c-0.563,-0.563 -1.326,-0.879 -2.122,-0.879c-4.184,0 -13.818,0 -18.002,0c-0.796,-0 -1.559,0.316 -2.121,0.879c-0.563,0.562 -0.879,1.325 -0.879,2.121c0,4.184 0,13.816 0,18c-0,0.796 0.316,1.559 0.879,2.121c0.562,0.563 1.325,0.879 2.121,0.879c4.184,0 13.818,0 18.002,0c0.796,0 1.559,-0.316 2.122,-0.879c0.562,-0.562 0.878,-1.325 0.878,-2.121l0,-18Zm-2,0l0,18c0,0.265 -0.105,0.52 -0.292,0.707c-0.188,0.188 -0.442,0.293 -0.708,0.293l-18.002,0c-0.265,0 -0.52,-0.105 -0.707,-0.293c-0.188,-0.187 -0.293,-0.442 -0.293,-0.707l0,-18c-0,-0.265 0.105,-0.52 0.293,-0.707c0.187,-0.188 0.442,-0.293 0.707,-0.293l18.002,-0c0.266,-0 0.52,0.105 0.708,0.293c0.187,0.187 0.292,0.442 0.292,0.707Z"/>
<path d="M14.006,8c-3.311,0 -6,2.689 -6,6c0,3.311 2.689,6 6,6c3.312,0 6,-2.689 6,-6c0,-3.311 -2.688,-6 -6,-6Zm0,2c2.208,0 4,1.792 4,4c0,2.208 -1.792,4 -4,4c-2.207,0 -4,-1.792 -4,-4c0,-2.208 1.793,-4 4,-4Z"/>
<path d="M22,9.021l0,7.565c0,-0 -1.736,1.736 -1.736,1.736c-0.39,0.39 -0.39,1.024 -0,1.414c0.39,0.39 1.024,0.39 1.414,0l2.029,-2.029c0.188,-0.187 0.293,-0.442 0.293,-0.707l0,-7.979c0,-0.552 -0.448,-1 -1,-1c-0.552,-0 -1,0.448 -1,1Z"/>
<circle cx="8.999" cy="22.999" r="1.001"/>
<circle cx="12.999" cy="22.999" r="1.001"/>
<circle cx="16.999" cy="22.999" r="1.001"/>
<circle cx="14.006" cy="13.995" r="1.001"/>
</g>
</svg>